<?xml version="1.0" standalone="no"?>
<!DOCTYPE svg PUBLIC "-//W3C//DTD SVG 20010904//EN"
 "http://www.w3.org/TR/2001/REC-SVG-20010904/DTD/svg10.dtd">
<svg version="1.0" xmlns="http://www.w3.org/2000/svg"
 width="270.000000pt" height="270.000000pt" viewBox="0 0 270.000000 270.000000"
 preserveAspectRatio="xMidYMid meet">
<metadata>
Created by potrace 1.11, written by Peter Selinger 2001-2013
</metadata>
<g transform="translate(0.000000,270.000000) scale(0.100000,-0.100000)"
fill="#000000" stroke="none">
<path d="M1345 2596 c11 -7 22 -14 25 -14 3 0 17 -5 32 -11 20 -7 28 -7 31 2
3 9 8 9 18 0 18 -18 29 -16 29 3 0 14 -7 15 -38 11 -24 -4 -47 -1 -66 8 -36
19 -57 20 -31 1z"/>
<path d="M1210 2590 c-1 -8 -2 -18 -1 -22 0 -5 -14 -8 -31 -9 -28 0 -30 -2
-13 -9 11 -5 33 -9 49 -9 21 -1 26 2 18 12 -5 6 -12 21 -15 32 -3 13 -5 15 -7
5z"/>
<path d="M1259 2591 c11 -7 11 -10 -2 -17 -13 -8 -11 -12 10 -28 25 -18 25
-18 14 3 -10 17 -9 21 4 21 20 0 19 16 -1 24 -24 9 -41 7 -25 -3z"/>
<path d="M1150 2579 c0 -5 5 -7 10 -4 6 3 10 8 10 11 0 2 -4 4 -10 4 -5 0 -10
-5 -10 -11z"/>
<path d="M1515 2581 l30 -6 -25 -18 c-19 -13 -21 -17 -7 -17 9 0 17 -6 18 -12
0 -7 5 0 9 16 11 37 6 46 -28 45 -27 -1 -27 -1 3 -8z"/>
<path d="M1110 2561 c0 -12 5 -21 10 -21 6 0 10 6 10 14 0 8 -4 18 -10 21 -5
3 -10 -3 -10 -14z"/>
<path d="M1315 2569 c-9 -14 0 -22 18 -17 13 2 13 5 2 15 -10 9 -16 9 -20 2z"/>
<path d="M1055 2550 c3 -5 10 -10 16 -10 5 0 9 5 9 10 0 6 -7 10 -16 10 -8 0
-12 -4 -9 -10z"/>
<path d="M1389 2556 c-1 -3 -2 -9 -3 -13 -1 -5 -5 -14 -10 -21 -4 -7 -6 -15
-3 -18 2 -3 12 7 21 20 9 15 12 27 6 31 -6 3 -11 4 -11 1z"/>
<path d="M1590 2540 c0 -5 10 -15 23 -21 22 -12 22 -12 3 10 -21 23 -26 26
-26 11z"/>
<path d="M1653 2535 c-11 -11 -9 -17 9 -30 20 -13 21 -18 10 -36 -15 -24 -9
-37 10 -22 20 16 54 21 71 12 10 -6 17 -4 20 4 4 10 -5 14 -30 15 -38 2 -77
28 -66 45 4 6 10 4 17 -5 6 -9 32 -18 56 -21 25 -3 36 -4 25 -1 -11 3 -24 10
-29 15 -6 5 -18 9 -29 9 -10 0 -16 4 -13 9 3 5 -1 12 -10 15 -22 8 -27 7 -41
-9z"/>
<path d="M980 2530 c-12 -8 -10 -10 8 -10 13 0 20 4 17 10 -7 12 -6 12 -25 0z"/>
<path d="M1135 2530 c-3 -5 1 -10 9 -10 9 0 16 5 16 10 0 6 -4 10 -9 10 -6 0
-13 -4 -16 -10z"/>
<path d="M1328 2523 c-23 -28 -30 -43 -19 -43 6 0 11 5 11 11 0 7 8 18 17 25
10 7 15 15 12 18 -3 3 -13 -2 -21 -11z"/>
<path d="M1430 2531 c0 -12 28 -22 35 -12 3 5 -2 12 -11 15 -21 8 -24 8 -24
-3z"/>
<path d="M1180 2505 c-14 -16 -10 -18 14 -9 9 3 16 10 16 15 0 14 -16 11 -30
-6z"/>
<path d="M1495 2510 c3 -5 11 -10 16 -10 6 0 7 5 4 10 -3 6 -11 10 -16 10 -6
0 -7 -4 -4 -10z"/>
<path d="M927 2500 c-20 -4 -47 -16 -60 -27 -12 -11 -29 -23 -38 -26 -9 -3
-19 -14 -21 -25 -4 -15 -1 -18 13 -15 24 7 24 -9 2 -45 l-17 -27 25 21 c13 12
30 20 37 18 7 -1 8 0 2 3 -5 2 -10 10 -10 16 0 6 -7 19 -17 29 -11 12 -12 18
-3 18 6 0 26 11 42 25 40 34 49 23 13 -15 -16 -16 -26 -33 -22 -36 8 -8 27 5
27 19 0 18 63 58 74 47 6 -6 5 -14 -2 -23 -10 -11 -5 -14 28 -15 22 -1 40 2
40 7 0 4 -11 7 -24 6 -18 -2 -23 1 -19 11 3 8 0 14 -6 14 -6 0 -11 7 -11 15 0
8 -3 14 -7 14 -5 -1 -25 -5 -46 -9z"/>
<path d="M1015 2500 c3 -5 12 -7 20 -3 21 7 19 13 -6 13 -11 0 -18 -4 -14 -10z"/>
<path d="M1093 2503 c9 -2 23 -2 30 0 6 3 -1 5 -18 5 -16 0 -22 -2 -12 -5z"/>
<path d="M1230 2500 c0 -5 5 -10 11 -10 5 0 7 5 4 10 -3 6 -8 10 -11 10 -2 0
-4 -4 -4 -10z"/>
<path d="M1555 2500 c3 -5 10 -10 16 -10 5 0 9 5 9 10 0 6 -7 10 -16 10 -8 0
-12 -4 -9 -10z"/>
<path d="M1430 2490 c0 -5 7 -10 15 -10 8 0 15 5 15 10 0 6 -7 10 -15 10 -8 0
-15 -4 -15 -10z"/>
<path d="M1057 2483 c-4 -3 -7 -11 -7 -17 0 -6 5 -5 12 2 6 6 9 14 7 17 -3 3
-9 2 -12 -2z"/>
<path d="M1140 2480 c0 -5 5 -10 10 -10 6 0 10 5 10 10 0 6 -4 10 -10 10 -5 0
-10 -4 -10 -10z"/>
<path d="M1485 2480 c4 -6 11 -8 16 -5 14 9 11 15 -7 15 -8 0 -12 -5 -9 -10z"/>
<path d="M1615 2480 c-16 -7 -17 -9 -3 -9 9 -1 20 4 23 9 7 11 7 11 -20 0z"/>
<path d="M1206 2455 c-3 -8 -1 -15 4 -15 6 0 10 7 10 15 0 8 -2 15 -4 15 -2 0
-6 -7 -10 -15z"/>
<path d="M1830 2466 c0 -2 7 -7 16 -10 8 -3 12 -2 9 4 -6 10 -25 14 -25 6z"/>
<path d="M1105 2430 c-4 -6 -10 -8 -15 -5 -5 3 -11 1 -15 -5 -3 -5 3 -10 13
-10 11 0 22 7 26 15 6 17 0 20 -9 5z"/>
<path d="M1713 2433 c-20 -8 -15 -22 6 -16 11 3 21 -2 24 -11 4 -9 11 -16 17
-16 6 0 3 11 -7 25 -19 26 -21 26 -40 18z"/>
<path d="M910 2421 c0 -6 5 -13 10 -16 6 -3 10 1 10 9 0 9 -4 16 -10 16 -5 0
-10 -4 -10 -9z"/>
<path d="M1663 2415 c0 -8 4 -12 9 -9 5 3 6 10 3 15 -9 13 -12 11 -12 -6z"/>
<path d="M1792 2423 c-15 -6 -6 -23 14 -23 8 0 14 7 14 15 0 15 -6 17 -28 8z"/>
<path d="M945 2410 c3 -5 10 -10 16 -10 5 0 9 5 9 10 0 6 -7 10 -16 10 -8 0
-12 -4 -9 -10z"/>
<path d="M1850 2405 c0 -8 5 -15 10 -15 6 0 10 7 10 15 0 8 -4 15 -10 15 -5 0
-10 -7 -10 -15z"/>
<path d="M1005 2400 c-3 -5 -1 -10 4 -10 6 0 11 5 11 10 0 6 -2 10 -4 10 -3 0
-8 -4 -11 -10z"/>
<path d="M1545 2400 c3 -5 8 -10 11 -10 2 0 4 5 4 10 0 6 -5 10 -11 10 -5 0
-7 -4 -4 -10z"/>
<path d="M1903 2385 c0 -14 2 -25 6 -25 4 0 8 11 9 25 1 14 -2 25 -7 25 -5 0
-8 -11 -8 -25z"/>
<path d="M762 2380 c-47 -11 -47 -16 -2 -15 22 0 42 6 45 13 5 13 4 13 -43 2z"/>
<path d="M1951 2371 c-7 -5 -11 -15 -9 -22 3 -10 8 -7 17 9 13 24 12 26 -8 13z"/>
<path d="M1845 2361 c-6 -11 9 -23 19 -14 9 9 7 23 -3 23 -6 0 -12 -4 -16 -9z"/>
<path d="M1770 2349 c0 -5 5 -7 10 -4 6 3 10 8 10 11 0 2 -4 4 -10 4 -5 0 -10
-5 -10 -11z"/>
<path d="M740 2343 c0 -5 5 -15 10 -23 7 -12 12 -12 22 -2 9 9 8 12 -6 12 -9
0 -14 5 -11 10 3 6 1 10 -4 10 -6 0 -11 -3 -11 -7z"/>
<path d="M1255 2340 c3 -5 8 -10 11 -10 2 0 4 5 4 10 0 6 -5 10 -11 10 -5 0
-7 -4 -4 -10z"/>
<path d="M1810 2340 c0 -5 5 -10 11 -10 5 0 7 5 4 10 -3 6 -8 10 -11 10 -2 0
-4 -4 -4 -10z"/>
<path d="M1900 2341 c0 -5 5 -13 10 -16 6 -3 10 -2 10 4 0 5 -4 13 -10 16 -5
3 -10 2 -10 -4z"/>
<path d="M1985 2340 c3 -5 1 -10 -4 -10 -20 0 36 -83 58 -87 13 -2 20 1 16 7
-3 5 -13 10 -21 10 -8 0 -14 7 -14 15 0 8 7 15 15 15 8 0 15 5 15 10 0 14 -27
13 -36 -1 -4 -8 -10 -6 -17 7 -7 13 -7 19 1 22 17 5 15 22 -4 22 -8 0 -12 -4
-9 -10z"/>
<path d="M665 2320 c-3 -5 1 -10 10 -10 9 0 13 5 10 10 -3 6 -8 10 -10 10 -2
0 -7 -4 -10 -10z"/>
<path d="M700 2316 c0 -8 -6 -17 -12 -20 -7 -3 1 -3 17 1 38 7 43 12 25 23
-21 14 -30 12 -30 -4z"/>
<path d="M1665 2320 c-3 -5 -1 -10 4 -10 6 0 11 5 11 10 0 6 -2 10 -4 10 -3 0
-8 -4 -11 -10z"/>
<path d="M1940 2322 c0 -12 19 -26 26 -19 2 2 -2 10 -11 17 -9 8 -15 8 -15 2z"/>
<path d="M970 2305 c0 -8 4 -15 10 -15 5 0 7 7 4 15 -4 8 -8 15 -10 15 -2 0
-4 -7 -4 -15z"/>
<path d="M806 2301 c-3 -5 1 -12 10 -15 22 -8 25 -4 9 11 -8 7 -16 9 -19 4z"/>
<path d="M910 2300 c0 -5 5 -10 10 -10 6 0 10 5 10 10 0 6 -4 10 -10 10 -5 0
-10 -4 -10 -10z"/>
<path d="M1111 2294 c0 -11 3 -14 6 -6 3 7 2 16 -1 19 -3 4 -6 -2 -5 -13z"/>
<path d="M640 2285 c0 -9 5 -15 11 -13 6 2 11 8 11 13 0 5 -5 11 -11 13 -6 2
-11 -4 -11 -13z"/>
<path d="M945 2290 c3 -5 8 -10 11 -10 2 0 4 5 4 10 0 6 -5 10 -11 10 -5 0 -7
-4 -4 -10z"/>
<path d="M1830 2292 c0 -12 19 -26 26 -19 2 2 -2 10 -11 17 -9 8 -15 8 -15 2z"/>
<path d="M715 2280 c-3 -5 -2 -10 4 -10 5 0 13 5 16 10 3 6 2 10 -4 10 -5 0
-13 -4 -16 -10z"/>
<path d="M2066 2271 c-4 -7 -5 -15 -2 -18 9 -9 19 4 14 18 -4 11 -6 11 -12 0z"/>
<path d="M610 2260 c-8 -5 -11 -12 -7 -16 4 -4 13 -2 19 4 15 15 7 24 -12 12z"/>
<path d="M1944 2261 c3 -5 15 -11 26 -14 17 -4 19 -3 9 9 -12 15 -44 20 -35 5z"/>
<path d="M656 2241 c-17 -18 -16 -19 7 -17 17 1 23 6 19 19 -5 21 -5 21 -26
-2z"/>
<path d="M817 2253 c-4 -3 -7 -11 -7 -17 0 -6 5 -5 12 2 6 6 9 14 7 17 -3 3
-9 2 -12 -2z"/>
<path d="M2065 2230 c3 -5 8 -10 11 -10 2 0 4 5 4 10 0 6 -5 10 -11 10 -5 0
-7 -4 -4 -10z"/>
<path d="M593 2216 c-4 -7 -19 -19 -33 -26 -15 -8 -20 -15 -13 -17 13 -5 71
36 72 50 1 12 -18 8 -26 -7z"/>
<path d="M2110 2222 c0 -7 5 -12 10 -12 6 0 10 -6 10 -14 0 -21 20 -70 25 -64
7 7 -16 71 -31 88 -10 10 -14 10 -14 2z"/>
<path d="M1941 2211 c-8 -6 -9 -11 -3 -15 6 -3 14 -1 17 5 9 14 2 20 -14 10z"/>
<path d="M2080 2198 c0 -9 5 -20 10 -23 8 -5 7 -11 -1 -21 -10 -12 -9 -13 5
-8 12 4 15 13 10 28 -9 29 -24 44 -24 24z"/>
<path d="M1777 2193 c-4 -3 -7 -11 -7 -17 0 -6 5 -5 12 2 6 6 9 14 7 17 -3 3
-9 2 -12 -2z"/>
<path d="M590 2170 c0 -5 6 -10 14 -10 8 0 18 5 21 10 3 6 -3 10 -14 10 -12 0
-21 -4 -21 -10z"/>
<path d="M650 2169 c0 -5 5 -7 10 -4 6 3 10 1 10 -5 0 -6 5 -8 11 -4 8 4 7 9
-2 15 -19 12 -29 11 -29 -2z"/>
<path d="M1915 2170 c3 -5 8 -10 11 -10 2 0 4 5 4 10 0 6 -5 10 -11 10 -5 0
-7 -4 -4 -10z"/>
<path d="M1890 2160 c0 -5 5 -10 11 -10 5 0 7 5 4 10 -3 6 -8 10 -11 10 -2 0
-4 -4 -4 -10z"/>
<path d="M2035 2150 c-3 -5 -2 -10 4 -10 5 0 13 5 16 10 3 6 2 10 -4 10 -5 0
-13 -4 -16 -10z"/>
<path d="M516 2141 c-4 -7 -5 -15 -2 -18 9 -9 19 4 14 18 -4 11 -6 11 -12 0z"/>
<path d="M540 2129 c0 -5 5 -7 10 -4 6 3 10 8 10 11 0 2 -4 4 -10 4 -5 0 -10
-5 -10 -11z"/>
<path d="M2180 2130 c0 -5 5 -10 11 -10 5 0 7 5 4 10 -3 6 -8 10 -11 10 -2 0
-4 -4 -4 -10z"/>
<path d="M566 2121 c-4 -7 -5 -15 -2 -18 9 -9 19 4 14 18 -4 11 -6 11 -12 0z"/>
<path d="M2120 2121 c0 -5 5 -13 10 -16 6 -3 10 -2 10 4 0 5 -4 13 -10 16 -5
3 -10 2 -10 -4z"/>
<path d="M486 2088 c3 -4 9 -8 15 -8 5 0 9 4 9 8 0 5 -7 9 -15 9 -8 0 -12 -4
-9 -9z"/>
<path d="M625 2090 c-3 -5 -1 -10 4 -10 6 0 11 5 11 10 0 6 -2 10 -4 10 -3 0
-8 -4 -11 -10z"/>
<path d="M1900 2091 c0 -6 5 -13 10 -16 6 -3 10 1 10 9 0 9 -4 16 -10 16 -5 0
-10 -4 -10 -9z"/>
<path d="M690 2071 c0 -5 7 -11 14 -14 10 -4 13 -1 9 9 -6 15 -23 19 -23 5z"/>
<path d="M2155 2069 c-4 -6 -4 -13 -1 -16 3 -4 6 -1 6 5 0 6 7 9 15 6 8 -4 15
-1 15 5 0 14 -27 14 -35 0z"/>
<path d="M2206 2072 c-4 -7 -4 -18 1 -24 4 -7 13 -28 18 -47 7 -25 18 -37 38
-42 15 -4 27 -4 27 0 0 13 -22 29 -34 25 -7 -3 -18 17 -27 48 -9 31 -18 47
-23 40z"/>
<path d="M553 2056 c3 -7 0 -20 -6 -27 -10 -11 -9 -11 6 0 19 15 23 41 6 41
-6 0 -9 -6 -6 -14z"/>
<path d="M485 2050 c-3 -5 -2 -10 4 -10 5 0 13 5 16 10 3 6 2 10 -4 10 -5 0
-13 -4 -16 -10z"/>
<path d="M520 2039 c0 -5 5 -7 10 -4 6 3 10 8 10 11 0 2 -4 4 -10 4 -5 0 -10
-5 -10 -11z"/>
<path d="M2110 2035 c-7 -9 -8 -15 -2 -15 5 0 12 7 16 15 3 8 4 15 2 15 -2 0
-9 -7 -16 -15z"/>
<path d="M431 2002 c-7 -13 -11 -26 -8 -28 8 -8 29 25 25 38 -3 8 -9 4 -17
-10z"/>
<path d="M487 2014 c-10 -11 -9 -26 2 -20 5 4 11 1 13 -6 3 -7 7 -5 11 6 4 9
3 15 -2 11 -5 -3 -11 0 -13 6 -2 5 -7 7 -11 3z"/>
<path d="M457 1993 c-8 -13 2 -43 14 -43 10 0 10 8 0 34 -5 12 -10 16 -14 9z"/>
<path d="M2180 1988 c0 -9 5 -20 10 -23 13 -8 13 5 0 25 -8 13 -10 13 -10 -2z"/>
<path d="M567 1940 c3 -11 9 -17 15 -14 5 3 4 12 -3 20 -16 19 -18 18 -12 -6z"/>
<path d="M497 1943 c-4 -3 -7 -11 -7 -17 0 -6 5 -5 12 2 6 6 9 14 7 17 -3 3
-9 2 -12 -2z"/>
<path d="M441 1905 c0 -31 2 -36 9 -23 6 10 7 25 1 40 -9 20 -10 18 -10 -17z"/>
<path d="M2271 1924 c0 -11 3 -14 6 -6 3 7 2 16 -1 19 -3 4 -6 -2 -5 -13z"/>
<path d="M2224 1918 c-5 -7 -3 -8 6 -3 10 6 12 2 8 -18 -3 -17 -1 -24 7 -21 7
3 10 16 7 30 -5 26 -16 31 -28 12z"/>
<path d="M386 1903 c-11 -11 -6 -21 14 -26 11 -3 20 -3 20 0 0 10 -28 32 -34
26z"/>
<path d="M2281 1897 c-6 -8 -8 -22 -5 -31 4 -10 -1 -25 -11 -36 -10 -11 -15
-23 -11 -27 10 -11 30 25 37 67 8 41 6 46 -10 27z"/>
<path d="M480 1884 c0 -8 5 -12 10 -9 6 4 8 11 5 16 -9 14 -15 11 -15 -7z"/>
<path d="M2180 1890 c0 -5 5 -10 11 -10 5 0 7 5 4 10 -3 6 -8 10 -11 10 -2 0
-4 -4 -4 -10z"/>
<path d="M2307 1884 c-8 -8 3 -34 14 -34 11 0 12 27 0 34 -4 3 -11 3 -14 0z"/>
<path d="M429 1860 c0 -3 -2 -16 -5 -30 -2 -14 -6 -35 -9 -47 -3 -13 -1 -23 5
-23 5 0 10 15 10 34 0 19 4 36 10 38 6 2 6 8 0 18 -5 8 -10 13 -11 10z"/>
<path d="M580 1849 c0 -5 5 -7 10 -4 6 3 10 8 10 11 0 2 -4 4 -10 4 -5 0 -10
-5 -10 -11z"/>
<path d="M362 1829 c-7 -12 -11 -24 -8 -27 3 -3 6 0 6 6 0 7 9 12 20 12 13 0
18 5 14 15 -8 20 -17 19 -32 -6z"/>
<path d="M2215 1840 c3 -5 8 -10 11 -10 2 0 4 5 4 10 0 6 -5 10 -11 10 -5 0
-7 -4 -4 -10z"/>
<path d="M2342 1805 c0 -16 2 -22 5 -12 2 9 2 23 0 30 -3 6 -5 -1 -5 -18z"/>
<path d="M2300 1785 c0 -8 2 -15 4 -15 2 0 6 7 10 15 3 8 1 15 -4 15 -6 0 -10
-7 -10 -15z"/>
<path d="M1632 1769 c-7 -12 -12 -22 -10 -23 2 -1 30 -27 62 -57 l60 -54 -24
40 c-41 68 -70 115 -73 115 -1 0 -8 -9 -15 -21z"/>
<path d="M357 1773 c-4 -3 -7 -11 -7 -17 0 -6 5 -5 12 2 6 6 9 14 7 17 -3 3
-9 2 -12 -2z"/>
<path d="M2155 1760 c3 -5 8 -10 11 -10 2 0 4 5 4 10 0 6 -5 10 -11 10 -5 0
-7 -4 -4 -10z"/>
<path d="M1075 1733 c-12 -21 -27 -33 -41 -33 -13 0 -31 -14 -48 -37 l-26 -38
42 -3 c86 -7 102 11 96 99 l-3 44 -20 -32z"/>
<path d="M2233 1745 c-3 -9 -3 -18 -1 -21 3 -3 8 4 11 16 6 23 -1 27 -10 5z"/>
<path d="M2320 1745 c0 -3 9 -15 19 -26 14 -15 21 -17 26 -8 5 7 1 18 -10 26
-19 13 -35 17 -35 8z"/>
<path d="M394 1726 c-3 -9 -9 -14 -14 -11 -17 10 -41 -23 -44 -60 -2 -22 -1
-31 1 -21 6 26 34 68 41 61 3 -3 12 4 20 16 8 11 11 23 8 26 -3 3 -8 -2 -12
-11z"/>
<path d="M2290 1705 c0 -5 5 -17 10 -25 5 -8 10 -10 10 -5 0 6 -5 17 -10 25
-5 8 -10 11 -10 5z"/>
<path d="M2370 1686 c0 -9 5 -16 10 -16 6 0 10 4 10 9 0 6 -4 13 -10 16 -5 3
-10 -1 -10 -9z"/>
<path d="M310 1675 c0 -8 2 -15 4 -15 2 0 6 7 10 15 3 8 1 15 -4 15 -6 0 -10
-7 -10 -15z"/>
<path d="M2346 1668 c3 -12 14 -30 24 -40 16 -18 16 -38 -3 -123 -2 -11 -2
-14 0 -6 4 12 6 12 14 0 6 -10 9 -10 9 -2 0 7 7 10 17 6 13 -5 15 -2 10 11 -4
10 -7 21 -7 24 0 4 -5 0 -11 -8 -7 -11 -8 5 -3 53 6 59 4 67 -9 61 -12 -4 -18
2 -23 20 -3 14 -10 26 -16 26 -5 0 -6 -10 -2 -22z"/>
<path d="M2190 1669 c0 -5 5 -7 10 -4 6 3 10 8 10 11 0 2 -4 4 -10 4 -5 0 -10
-5 -10 -11z"/>
<path d="M2240 1661 c0 -5 5 -13 10 -16 6 -3 10 -2 10 4 0 5 -4 13 -10 16 -5
3 -10 2 -10 -4z"/>
<path d="M385 1651 c-3 -6 -11 -9 -16 -6 -5 4 -9 2 -9 -4 0 -18 17 -21 30 -6
7 9 10 18 7 21 -3 3 -8 0 -12 -5z"/>
<path d="M2310 1639 c0 -5 4 -8 9 -5 13 9 28 -15 34 -56 5 -35 4 -38 -19 -38
-14 0 -24 -6 -24 -14 0 -12 5 -12 30 -3 27 10 30 14 24 47 -7 47 -24 80 -41
80 -7 0 -13 -5 -13 -11z"/>
<path d="M311 1604 c0 -11 3 -14 6 -6 3 7 2 16 -1 19 -3 4 -6 -2 -5 -13z"/>
<path d="M355 1583 c3 -16 11 -32 17 -38 8 -7 9 -4 4 8 -3 10 -6 27 -6 38 0
10 -5 19 -11 19 -7 0 -9 -10 -4 -27z"/>
<path d="M2303 1603 c-21 -8 -15 -26 7 -20 10 3 21 0 24 -7 3 -6 5 -2 3 8 -2
21 -14 27 -34 19z"/>
<path d="M292 1570 c0 -14 2 -19 5 -12 2 6 2 18 0 25 -3 6 -5 1 -5 -13z"/>
<path d="M325 1567 c-4 -10 -5 -21 -1 -24 10 -10 18 4 13 24 -4 17 -4 17 -12
0z"/>
<path d="M481 1544 c0 -11 3 -14 6 -6 3 7 2 16 -1 19 -3 4 -6 -2 -5 -13z"/>
<path d="M2266 1528 c3 -4 9 -8 15 -8 5 0 9 4 9 8 0 5 -7 9 -15 9 -8 0 -12 -4
-9 -9z"/>
<path d="M294 1519 c-6 -10 11 -28 28 -29 15 0 20 23 7 31 -19 12 -26 11 -35
-2z"/>
<path d="M287 1469 c-9 -34 -7 -48 3 -24 7 15 9 16 9 4 1 -9 8 -22 16 -29 12
-10 15 -10 15 3 0 9 -5 19 -11 22 -6 4 -14 16 -18 28 -7 20 -8 20 -14 -4z"/>
<path d="M345 1481 c-3 -5 -1 -12 5 -16 5 -3 10 1 10 9 0 18 -6 21 -15 7z"/>
<path d="M2326 1465 c4 -8 8 -15 10 -15 2 0 4 7 4 15 0 8 -4 15 -10 15 -5 0
-7 -7 -4 -15z"/>
<path d="M2390 1466 c0 -9 7 -16 16 -16 17 0 14 22 -4 28 -7 2 -12 -3 -12 -12z"/>
<path d="M2371 1462 c-1 -7 4 -23 10 -35 9 -16 9 -22 0 -25 -21 -7 -11 -28 14
-28 17 0 25 5 25 18 0 10 -4 18 -8 18 -5 0 -16 15 -25 33 -8 17 -16 26 -16 19z"/>
<path d="M2290 1450 c0 -5 5 -10 10 -10 6 0 10 5 10 10 0 6 -4 10 -10 10 -5 0
-10 -4 -10 -10z"/>
<path d="M790 1286 l0 -165 -47 -4 -48 -3 46 -2 46 -2 6 -67 c4 -38 7 -112 7
-165 l0 -98 45 0 c25 0 45 5 45 10 0 6 35 10 84 10 l84 0 4 45 c3 38 0 45 -14
45 -10 0 -18 6 -18 14 0 20 -17 29 -26 15 -5 -8 -3 -9 6 -4 8 5 11 3 8 -6 -3
-9 -21 -15 -46 -15 -34 -2 -42 1 -42 16 0 10 -10 21 -22 25 l-23 8 23 4 c20 4
22 10 22 74 l0 69 66 0 c64 0 66 1 60 23 -3 12 -6 34 -6 49 0 27 -1 27 -72 30
l-73 3 -3 73 -3 72 86 0 85 0 0 55 0 55 -140 0 -140 0 0 -164z m43 -173 c-7
-2 -21 -2 -30 0 -10 3 -4 5 12 5 17 0 24 -2 18 -5z"/>
<path d="M1100 1438 c0 -7 9 -83 20 -168 11 -85 20 -158 20 -162 0 -5 7 -8 15
-8 12 0 15 -19 15 -110 0 -91 3 -110 15 -110 11 0 15 -12 15 -50 l0 -50 39 0
40 0 3 48 c3 45 4 47 36 50 l32 3 -1 167 c0 189 13 267 24 137 4 -43 7 -100 7
-126 0 -42 3 -48 23 -51 21 -3 22 -8 25 -110 l3 -108 27 0 c31 0 52 34 52 87
0 30 3 33 30 33 29 0 30 1 30 50 0 49 -1 50 -30 50 -16 0 -30 5 -30 10 0 6 17
10 39 10 38 0 39 1 44 43 3 23 15 109 26 191 28 201 31 186 -29 186 -27 0 -50
-3 -51 -7 0 -5 -8 -82 -17 -173 -16 -157 -18 -165 -39 -168 -27 -4 -30 6 -38
138 -3 52 -8 121 -12 153 l-6 57 -67 0 -67 0 -12 -162 c-7 -90 -17 -167 -22
-173 -19 -19 -27 12 -38 145 -17 201 -13 190 -72 190 -32 0 -49 -4 -49 -12z"/>
<path d="M1660 1165 c0 -245 2 -286 15 -291 10 -4 15 -20 15 -50 l0 -44 125 0
125 0 0 40 c0 38 2 40 30 40 l30 0 0 75 c0 68 -2 75 -20 75 -11 0 -20 7 -20
15 0 8 9 15 20 15 19 0 20 7 20 205 l0 205 -55 0 -55 0 0 -220 c0 -189 -2
-220 -15 -220 -12 0 -15 -13 -15 -61 l0 -61 -32 6 c-18 3 -36 10 -41 15 -13
13 -26 80 -27 129 0 38 -2 42 -25 42 -14 0 -25 5 -25 10 0 6 11 10 25 10 l25
0 0 175 0 175 -50 0 -50 0 0 -285z"/>
<path d="M350 1430 c0 -5 5 -10 11 -10 5 0 7 5 4 10 -3 6 -8 10 -11 10 -2 0
-4 -4 -4 -10z"/>
<path d="M386 1431 c-4 -7 -5 -15 -2 -18 9 -9 19 4 14 18 -4 11 -6 11 -12 0z"/>
<path d="M441 1414 c0 -11 3 -14 6 -6 3 7 2 16 -1 19 -3 4 -6 -2 -5 -13z"/>
<path d="M2355 1420 c3 -5 8 -10 11 -10 2 0 4 5 4 10 0 6 -5 10 -11 10 -5 0
-7 -4 -4 -10z"/>
<path d="M2267 1399 c7 -7 15 -10 18 -7 3 3 -2 9 -12 12 -14 6 -15 5 -6 -5z"/>
<path d="M2330 1394 c0 -8 5 -12 10 -9 6 3 10 10 10 16 0 5 -4 9 -10 9 -5 0
-10 -7 -10 -16z"/>
<path d="M281 1384 c0 -11 3 -14 6 -6 3 7 2 16 -1 19 -3 4 -6 -2 -5 -13z"/>
<path d="M300 1390 c0 -5 5 -10 10 -10 6 0 10 5 10 10 0 6 -4 10 -10 10 -5 0
-10 -4 -10 -10z"/>
<path d="M330 1386 c0 -8 -3 -22 -7 -32 -4 -11 -3 -15 4 -11 13 8 23 57 12 57
-5 0 -9 -6 -9 -14z"/>
<path d="M362 1365 c0 -16 2 -22 5 -12 2 9 2 23 0 30 -3 6 -5 -1 -5 -18z"/>
<path d="M2322 1345 c-1 -11 5 -29 13 -39 13 -17 15 -18 15 -3 0 9 -4 17 -9
17 -5 0 -12 10 -14 23 -4 19 -4 19 -5 2z"/>
<path d="M2360 1341 c0 -12 5 -21 10 -21 6 0 10 6 10 14 0 8 -4 18 -10 21 -5
3 -10 -3 -10 -14z"/>
<path d="M2396 1349 c-2 -8 -9 -27 -14 -44 -6 -19 -6 -36 1 -46 7 -11 4 -26
-8 -53 -29 -61 -10 -52 21 10 21 41 25 58 17 61 -16 6 -17 35 -1 51 9 9 9 15
0 24 -9 9 -12 8 -16 -3z"/>
<path d="M302 1320 c0 -14 2 -19 5 -12 2 6 2 18 0 25 -3 6 -5 1 -5 -13z"/>
<path d="M380 1318 c0 -9 5 -20 10 -23 13 -8 13 5 0 25 -8 13 -10 13 -10 -2z"/>
<path d="M332 1290 c-9 -15 -10 -26 -3 -38 9 -15 10 -13 11 9 0 14 5 30 12 37
7 7 8 12 2 12 -5 0 -15 -9 -22 -20z"/>
<path d="M280 1274 c0 -8 7 -22 15 -30 16 -17 18 -12 9 24 -7 25 -24 30 -24 6z"/>
<path d="M371 1244 c0 -11 3 -14 6 -6 3 7 2 16 -1 19 -3 4 -6 -2 -5 -13z"/>
<path d="M2327 1253 c-4 -3 -7 -13 -7 -22 1 -13 3 -13 11 2 11 19 8 33 -4 20z"/>
<path d="M2350 1256 c0 -2 7 -6 15 -10 8 -3 15 -1 15 4 0 6 -7 10 -15 10 -8 0
-15 -2 -15 -4z"/>
<path d="M302 1212 c-14 -13 -18 -22 -11 -33 6 -10 9 -10 9 -1 0 6 6 12 14 12
8 0 18 -19 25 -46 7 -26 14 -45 16 -42 3 2 0 21 -6 41 -11 43 -6 59 18 50 11
-4 14 -3 9 5 -4 7 -19 10 -33 8 -19 -4 -23 -1 -19 10 7 18 3 18 -22 -4z"/>
<path d="M461 1214 c0 -11 3 -14 6 -6 3 7 2 16 -1 19 -3 4 -6 -2 -5 -13z"/>
<path d="M2411 1204 c0 -11 3 -14 6 -6 3 7 2 16 -1 19 -3 4 -6 -2 -5 -13z"/>
<path d="M390 1190 c0 -5 5 -10 11 -10 5 0 7 5 4 10 -3 6 -8 10 -11 10 -2 0
-4 -4 -4 -10z"/>
<path d="M2320 1168 c0 -19 2 -20 10 -8 13 19 13 30 0 30 -5 0 -10 -10 -10
-22z"/>
<path d="M370 1150 c0 -5 5 -10 11 -10 5 0 7 5 4 10 -3 6 -8 10 -11 10 -2 0
-4 -4 -4 -10z"/>
<path d="M2200 1156 c0 -2 7 -7 16 -10 8 -3 12 -2 9 4 -6 10 -25 14 -25 6z"/>
<path d="M2276 1145 c-3 -9 -6 -22 -5 -28 0 -7 5 -1 10 12 5 13 8 26 5 28 -2
2 -6 -3 -10 -12z"/>
<path d="M2380 1143 c0 -8 5 -13 12 -11 18 6 21 25 3 25 -8 0 -15 -7 -15 -14z"/>
<path d="M307 1143 c-4 -3 -7 -16 -6 -27 0 -19 1 -19 10 3 10 24 8 36 -4 24z"/>
<path d="M2337 1133 c-4 -3 2 -12 13 -20 11 -8 20 -24 21 -36 l0 -22 9 21 c5
12 13 25 19 29 20 12 11 22 -14 17 -15 -2 -25 0 -25 7 0 12 -13 15 -23 4z"/>
<path d="M320 1110 c0 -21 17 -46 25 -38 4 4 0 17 -9 30 -10 14 -16 17 -16 8z"/>
<path d="M370 1093 c0 -22 2 -25 10 -13 13 20 13 40 0 40 -5 0 -10 -12 -10
-27z"/>
<path d="M422 1090 c7 -10 14 -18 15 -16 6 6 -9 36 -18 36 -5 0 -4 -9 3 -20z"/>
<path d="M1770 1090 c0 -5 14 -10 30 -10 17 0 30 5 30 10 0 6 -13 10 -30 10
-16 0 -30 -4 -30 -10z"/>
<path d="M300 1071 c0 -6 5 -13 10 -16 6 -3 10 -23 10 -43 0 -32 1 -34 13 -17
8 10 19 15 25 11 21 -13 12 8 -17 42 -29 33 -41 39 -41 23z"/>
<path d="M2331 1064 c0 -11 3 -14 6 -6 3 7 2 16 -1 19 -3 4 -6 -2 -5 -13z"/>
<path d="M2180 1059 c0 -5 5 -7 10 -4 6 3 10 8 10 11 0 2 -4 4 -10 4 -5 0 -10
-5 -10 -11z"/>
<path d="M2276 1051 c-4 -7 -5 -15 -2 -18 9 -9 19 4 14 18 -4 11 -6 11 -12 0z"/>
<path d="M391 1034 c0 -11 3 -14 6 -6 3 7 2 16 -1 19 -3 4 -6 -2 -5 -13z"/>
<path d="M2340 1029 c0 -5 11 -9 25 -9 14 0 25 4 25 9 0 5 -11 9 -25 9 -14 0
-25 -4 -25 -9z"/>
<path d="M440 1009 c0 -5 -4 -7 -10 -4 -5 3 -10 1 -10 -4 0 -6 7 -11 15 -11 8
0 15 7 15 15 0 8 -2 15 -5 15 -3 0 -5 -5 -5 -11z"/>
<path d="M1140 1010 c0 -5 5 -10 10 -10 6 0 10 5 10 10 0 6 -4 10 -10 10 -5 0
-10 -4 -10 -10z"/>
<path d="M2302 998 c-16 -16 -15 -35 0 -40 9 -3 8 -9 -5 -22 -9 -10 -17 -25
-16 -34 0 -14 2 -14 6 -2 3 8 11 22 18 30 9 11 18 80 10 80 0 0 -6 -5 -13 -12z"/>
<path d="M2346 985 c-18 -18 -21 -35 -6 -35 6 0 11 -10 11 -22 1 -13 5 -3 9
22 9 53 8 56 -14 35z"/>
<path d="M351 938 c1 -29 4 -41 6 -25 4 26 23 39 23 15 0 -6 3 -9 6 -6 6 6
-23 68 -31 68 -3 0 -4 -24 -4 -52z"/>
<path d="M2260 979 c0 -5 5 -7 10 -4 6 3 10 8 10 11 0 2 -4 4 -10 4 -5 0 -10
-5 -10 -11z"/>
<path d="M400 960 c0 -5 5 -10 10 -10 6 0 10 5 10 10 0 6 -4 10 -10 10 -5 0
-10 -4 -10 -10z"/>
<path d="M2160 960 c0 -5 5 -10 10 -10 6 0 10 5 10 10 0 6 -4 10 -10 10 -5 0
-10 -4 -10 -10z"/>
<path d="M471 944 c-1 -6 6 -17 14 -24 12 -10 15 -9 15 4 0 10 -4 15 -9 12 -5
-4 -12 0 -14 6 -4 8 -6 9 -6 2z"/>
<path d="M2266 935 c-9 -26 -7 -32 5 -12 6 10 9 21 6 23 -2 3 -7 -2 -11 -11z"/>
<path d="M2232 920 c-7 -11 -8 -20 -3 -20 9 0 24 30 18 36 -1 2 -8 -6 -15 -16z"/>
<path d="M970 914 c0 -8 5 -12 10 -9 6 3 10 10 10 16 0 5 -4 9 -10 9 -5 0 -10
-7 -10 -16z"/>
<path d="M2320 917 c0 -10 -13 -32 -30 -49 -32 -31 -35 -38 -22 -38 28 0 75
70 61 91 -7 11 -9 10 -9 -4z"/>
<path d="M431 915 c0 -5 6 -19 14 -29 8 -11 15 -15 15 -10 0 6 -7 19 -15 30
-8 10 -14 15 -14 9z"/>
<path d="M1140 910 c0 -5 5 -10 11 -10 5 0 7 5 4 10 -3 6 -8 10 -11 10 -2 0
-4 -4 -4 -10z"/>
<path d="M371 858 l1 -43 14 33 c14 33 12 52 -7 52 -5 0 -9 -19 -8 -42z"/>
<path d="M2251 874 c0 -11 3 -14 6 -6 3 7 2 16 -1 19 -3 4 -6 -2 -5 -13z"/>
<path d="M415 870 c3 -5 8 -10 11 -10 2 0 4 5 4 10 0 6 -5 10 -11 10 -5 0 -7
-4 -4 -10z"/>
<path d="M2075 850 c-3 -5 -1 -10 4 -10 6 0 11 5 11 10 0 6 -2 10 -4 10 -3 0
-8 -4 -11 -10z"/>
<path d="M2140 849 c0 -5 5 -7 10 -4 6 3 10 8 10 11 0 2 -4 4 -10 4 -5 0 -10
-5 -10 -11z"/>
<path d="M2295 819 c-16 -16 -33 -29 -37 -29 -20 0 -5 -28 17 -32 25 -5 37 16
13 24 -6 2 -8 10 -4 17 5 7 14 10 21 7 10 -4 31 33 22 40 -1 1 -15 -11 -32
-27z"/>
<path d="M448 833 c-10 -2 -18 -9 -18 -14 0 -14 26 -11 40 6 13 15 9 16 -22 8z"/>
<path d="M406 815 c4 -8 8 -15 10 -15 2 0 4 7 4 15 0 8 -4 15 -10 15 -5 0 -7
-7 -4 -15z"/>
<path d="M2190 824 c0 -9 24 -29 40 -32 10 -2 7 4 -7 17 -22 21 -33 26 -33 15z"/>
<path d="M630 810 c0 -5 5 -10 11 -10 5 0 7 5 4 10 -3 6 -8 10 -11 10 -2 0 -4
-4 -4 -10z"/>
<path d="M520 800 c0 -5 5 -10 11 -10 5 0 7 5 4 10 -3 6 -8 10 -11 10 -2 0 -4
-4 -4 -10z"/>
<path d="M441 778 c-1 -15 4 -30 9 -33 12 -7 12 12 0 40 -8 18 -9 17 -9 -7z"/>
<path d="M496 783 c-6 -14 -5 -15 5 -6 7 7 10 15 7 18 -3 3 -9 -2 -12 -12z"/>
<path d="M600 790 c0 -5 5 -10 11 -10 5 0 7 5 4 10 -3 6 -8 10 -11 10 -2 0 -4
-4 -4 -10z"/>
<path d="M410 780 c-4 -26 1 -44 16 -60 12 -12 14 -12 14 1 0 8 -4 19 -9 25
-5 5 -11 18 -14 29 -3 13 -5 15 -7 5z"/>
<path d="M610 752 c0 -12 19 -26 26 -19 2 2 -2 10 -11 17 -9 8 -15 8 -15 2z"/>
<path d="M525 741 c-3 -5 -1 -12 5 -16 5 -3 10 1 10 9 0 18 -6 21 -15 7z"/>
<path d="M450 721 c0 -6 5 -13 10 -16 6 -3 10 1 10 9 0 9 -4 16 -10 16 -5 0
-10 -4 -10 -9z"/>
<path d="M2170 710 c0 -11 2 -20 4 -20 2 0 6 9 9 20 3 11 1 20 -4 20 -5 0 -9
-9 -9 -20z"/>
<path d="M2206 723 c-11 -12 -6 -21 12 -19 11 1 16 -5 14 -16 -2 -12 2 -16 13
-12 8 3 15 12 15 18 0 14 -45 38 -54 29z"/>
<path d="M501 704 c0 -11 3 -14 6 -6 3 7 2 16 -1 19 -3 4 -6 -2 -5 -13z"/>
<path d="M2070 705 c-7 -8 -8 -15 -2 -15 5 0 15 7 22 15 7 8 8 15 2 15 -5 0
-15 -7 -22 -15z"/>
<path d="M441 681 c3 -8 14 -19 25 -25 27 -15 32 -25 27 -47 -3 -11 0 -19 7
-19 13 0 39 -28 40 -43 0 -5 -6 -5 -12 -1 -7 4 -4 -3 7 -17 11 -13 22 -26 24
-29 2 -3 0 13 -3 35 -4 22 -12 44 -17 50 -5 5 -9 18 -9 30 0 16 -2 17 -10 5
-7 -11 -9 -5 -5 20 3 19 2 29 -1 21 -5 -11 -11 -8 -25 10 -11 14 -19 18 -19
10 0 -11 -3 -11 -17 0 -14 12 -16 12 -12 0z"/>
<path d="M571 678 c-1 -9 4 -20 9 -23 6 -3 10 -15 10 -26 0 -10 5 -19 11 -19
11 0 2 41 -11 50 -4 3 -10 12 -13 20 -4 12 -6 12 -6 -2z"/>
<path d="M2200 680 c-1 -8 -2 -21 -1 -27 2 -17 -17 -53 -28 -53 -5 0 -11 10
-15 22 -4 18 -8 20 -18 10 -10 -10 -10 -14 1 -21 10 -6 12 -19 7 -47 -6 -30
-5 -36 4 -27 32 31 62 101 57 132 -2 14 -5 19 -7 11z"/>
<path d="M535 660 c3 -5 8 -10 11 -10 2 0 4 5 4 10 0 6 -5 10 -11 10 -5 0 -7
-4 -4 -10z"/>
<path d="M2145 660 c-3 -5 1 -10 9 -10 9 0 16 5 16 10 0 6 -4 10 -9 10 -6 0
-13 -4 -16 -10z"/>
<path d="M2100 645 c0 -5 5 -17 10 -25 5 -8 10 -10 10 -5 0 6 -5 17 -10 25 -5
8 -10 11 -10 5z"/>
<path d="M2220 630 c-6 -11 -8 -20 -6 -20 3 0 10 9 16 20 6 11 8 20 6 20 -3 0
-10 -9 -16 -20z"/>
<path d="M545 610 c3 -5 8 -10 11 -10 2 0 4 5 4 10 0 6 -5 10 -11 10 -5 0 -7
-4 -4 -10z"/>
<path d="M695 590 c-3 -5 -1 -10 4 -10 6 0 11 5 11 10 0 6 -2 10 -4 10 -3 0
-8 -4 -11 -10z"/>
<path d="M570 581 c0 -6 5 -13 10 -16 6 -3 10 1 10 9 0 9 -4 16 -10 16 -5 0
-10 -4 -10 -9z"/>
<path d="M600 586 c0 -2 7 -9 15 -16 13 -11 14 -10 9 4 -5 14 -24 23 -24 12z"/>
<path d="M667 560 c3 -11 7 -20 9 -20 2 0 4 9 4 20 0 11 -4 20 -9 20 -5 0 -7
-9 -4 -20z"/>
<path d="M2020 558 c0 -19 2 -20 10 -8 13 19 13 30 0 30 -5 0 -10 -10 -10 -22z"/>
<path d="M2110 566 c0 -9 5 -16 10 -16 6 0 10 4 10 9 0 6 -4 13 -10 16 -5 3
-10 -1 -10 -9z"/>
<path d="M2080 549 c0 -5 5 -7 10 -4 6 3 10 8 10 11 0 2 -4 4 -10 4 -5 0 -10
-5 -10 -11z"/>
<path d="M586 522 c-4 -13 -5 -26 -2 -29 10 -11 18 4 14 29 l-4 23 -8 -23z"/>
<path d="M620 533 c0 -10 40 -36 46 -30 3 2 -7 12 -21 21 -14 9 -25 13 -25 9z"/>
<path d="M1968 525 c-9 -10 3 -43 18 -49 11 -4 12 -1 6 12 -5 9 -11 23 -13 30
-3 7 -7 10 -11 7z"/>
<path d="M2043 513 c-21 -8 -15 -22 7 -16 11 3 20 9 20 14 0 10 -8 10 -27 2z"/>
<path d="M2103 489 c2 -22 10 -24 26 -5 9 11 7 15 -8 19 -15 3 -19 0 -18 -14z"/>
<path d="M625 490 c3 -5 8 -10 11 -10 2 0 4 5 4 10 0 6 -5 10 -11 10 -5 0 -7
-4 -4 -10z"/>
<path d="M680 490 c0 -5 5 -10 11 -10 5 0 7 5 4 10 -3 6 -8 10 -11 10 -2 0 -4
-4 -4 -10z"/>
<path d="M605 471 c-3 -5 -1 -12 5 -16 5 -3 10 1 10 9 0 18 -6 21 -15 7z"/>
<path d="M660 471 c0 -7 5 -21 10 -32 8 -15 7 -19 -4 -19 -10 0 -13 6 -10 15
7 18 -7 20 -24 3 -8 -8 -5 -14 15 -25 37 -19 42 -17 38 19 -5 32 -25 65 -25
39z"/>
<path d="M2055 460 c-4 -6 -2 -17 4 -24 6 -7 9 -16 6 -19 -3 -4 -2 -5 2 -2 11
9 15 55 4 55 -5 0 -13 -5 -16 -10z"/>
<path d="M1785 440 c-3 -5 -1 -10 4 -10 6 0 11 5 11 10 0 6 -2 10 -4 10 -3 0
-8 -4 -11 -10z"/>
<path d="M2020 439 c0 -5 5 -7 10 -4 6 3 10 8 10 11 0 2 -4 4 -10 4 -5 0 -10
-5 -10 -11z"/>
<path d="M1982 428 c-19 -19 -14 -29 8 -16 20 13 27 28 12 28 -4 0 -13 -5 -20
-12z"/>
<path d="M700 420 c0 -5 5 -10 10 -10 6 0 10 5 10 10 0 6 -4 10 -10 10 -5 0
-10 -4 -10 -10z"/>
<path d="M1852 411 c4 -13 18 -16 19 -4 0 4 -5 9 -11 12 -7 2 -11 -2 -8 -8z"/>
<path d="M1090 400 c0 -5 5 -10 11 -10 5 0 7 5 4 10 -3 6 -8 10 -11 10 -2 0
-4 -4 -4 -10z"/>
<path d="M1905 400 c-3 -5 -1 -10 5 -10 6 0 19 -7 27 -16 9 -8 24 -13 34 -11
11 3 19 1 19 -4 0 -5 5 -9 10 -9 6 0 10 6 10 14 0 9 -9 13 -25 11 -17 -1 -29
4 -36 16 -11 21 -34 25 -44 9z"/>
<path d="M2020 400 c0 -5 5 -10 10 -10 6 0 10 5 10 10 0 6 -4 10 -10 10 -5 0
-10 -4 -10 -10z"/>
<path d="M1799 377 c-8 -7 -19 -21 -23 -32 -5 -15 -1 -14 20 8 28 30 30 43 3
24z"/>
<path d="M775 370 c3 -5 14 -10 23 -10 15 0 15 2 2 10 -20 13 -33 13 -25 0z"/>
<path d="M710 350 c38 -21 50 -24 50 -12 0 9 -50 32 -69 32 -9 -1 0 -9 19 -20z"/>
<path d="M838 345 c2 -14 6 -25 8 -25 2 0 4 11 4 25 0 14 -4 25 -9 25 -4 0 -6
-11 -3 -25z"/>
<path d="M1745 360 c3 -5 8 -10 11 -10 2 0 4 5 4 10 0 6 -5 10 -11 10 -5 0 -7
-4 -4 -10z"/>
<path d="M1878 363 c7 -3 16 -2 19 1 4 3 -2 6 -13 5 -11 0 -14 -3 -6 -6z"/>
<path d="M880 350 c0 -5 5 -10 10 -10 6 0 10 5 10 10 0 6 -4 10 -10 10 -5 0
-10 -4 -10 -10z"/>
<path d="M975 330 c4 -6 11 -8 16 -5 14 9 11 15 -7 15 -8 0 -12 -5 -9 -10z"/>
<path d="M1695 330 c-3 -5 -1 -10 4 -10 6 0 11 5 11 10 0 6 -2 10 -4 10 -3 0
-8 -4 -11 -10z"/>
<path d="M1810 338 c0 -3 7 -21 15 -41 16 -38 13 -47 -15 -40 -12 3 -17 10
-12 21 3 10 -6 5 -20 -10 -14 -15 -28 -25 -32 -21 -4 4 -4 -1 0 -11 7 -18 8
-18 21 0 14 19 18 8 4 -14 -10 -17 -68 -19 -83 -4 -15 15 -28 15 -28 2 0 -6 8
-14 18 -17 9 -4 19 -10 22 -13 3 -4 20 -5 38 -2 23 3 37 12 45 29 8 18 17 23
36 21 23 -3 26 1 25 27 0 17 7 35 15 42 14 11 14 12 -4 13 -12 0 -26 5 -33 12
-7 7 -12 9 -12 6z"/>
<path d="M1900 330 c0 -5 5 -10 10 -10 6 0 10 5 10 10 0 6 -4 10 -10 10 -5 0
-10 -4 -10 -10z"/>
<path d="M1940 329 c0 -5 5 -7 10 -4 6 3 10 8 10 11 0 2 -4 4 -10 4 -5 0 -10
-5 -10 -11z"/>
<path d="M802 298 c1 -17 7 -24 15 -21 11 4 11 9 1 22 -7 9 -14 18 -15 20 -2
3 -2 -7 -1 -21z"/>
<path d="M765 300 c3 -5 11 -10 16 -10 6 0 7 5 4 10 -3 6 -11 10 -16 10 -6 0
-7 -4 -4 -10z"/>
<path d="M840 300 c0 -5 5 -10 10 -10 6 0 10 5 10 10 0 6 -4 10 -10 10 -5 0
-10 -4 -10 -10z"/>
<path d="M1575 300 c-3 -5 -1 -10 4 -10 6 0 11 5 11 10 0 6 -2 10 -4 10 -3 0
-8 -4 -11 -10z"/>
<path d="M1740 301 c0 -5 6 -14 14 -20 12 -10 13 -8 9 8 -5 21 -23 30 -23 12z"/>
<path d="M1880 302 c0 -11 48 -13 55 -2 4 6 -7 10 -24 10 -17 0 -31 -4 -31 -8z"/>
<path d="M925 290 c3 -5 8 -10 11 -10 2 0 4 5 4 10 0 6 -5 10 -11 10 -5 0 -7
-4 -4 -10z"/>
<path d="M995 270 c3 -5 8 -10 11 -10 2 0 4 5 4 10 0 6 -5 10 -11 10 -5 0 -7
-4 -4 -10z"/>
<path d="M1095 270 c-3 -5 1 -10 10 -10 9 0 13 5 10 10 -3 6 -8 10 -10 10 -2
0 -7 -4 -10 -10z"/>
<path d="M1626 271 c-4 -7 -5 -15 -2 -18 9 -9 19 4 14 18 -4 11 -6 11 -12 0z"/>
<path d="M875 260 c-4 -6 -4 -10 -1 -10 2 0 11 -3 20 -6 9 -3 16 -2 16 4 0 14
-28 23 -35 12z"/>
<path d="M1695 260 c3 -5 10 -10 16 -10 5 0 9 5 9 10 0 6 -7 10 -16 10 -8 0
-12 -4 -9 -10z"/>
<path d="M1860 260 c0 -5 4 -10 9 -10 6 0 13 5 16 10 3 6 -1 10 -9 10 -9 0
-16 -4 -16 -10z"/>
<path d="M1220 250 c-13 -8 -12 -10 3 -10 9 0 17 5 17 10 0 12 -1 12 -20 0z"/>
<path d="M940 230 c0 -5 9 -10 20 -10 11 0 20 5 20 10 0 6 -9 10 -20 10 -11 0
-20 -4 -20 -10z"/>
<path d="M1035 230 c3 -5 13 -10 21 -10 8 0 14 5 14 10 0 6 -9 10 -21 10 -11
0 -17 -4 -14 -10z"/>
<path d="M1530 230 c0 -5 12 -10 28 -9 24 0 25 1 7 9 -27 12 -35 12 -35 0z"/>
<path d="M910 223 c0 -6 8 -17 18 -24 16 -13 16 -13 2 6 -8 11 -16 22 -17 24
-2 2 -3 0 -3 -6z"/>
<path d="M1135 201 c-3 -12 -13 -21 -21 -21 -8 0 -14 -4 -14 -10 0 -5 9 -10
21 -10 11 0 18 4 14 9 -3 6 3 14 12 20 14 7 15 13 6 21 -8 9 -13 7 -18 -9z"/>
<path d="M1430 209 c0 -5 5 -7 10 -4 6 3 10 8 10 11 0 2 -4 4 -10 4 -5 0 -10
-5 -10 -11z"/>
<path d="M950 204 c0 -6 39 -44 46 -44 2 0 1 7 -2 15 -7 18 0 19 26 5 19 -10
76 -3 65 8 -3 3 -29 7 -58 7 -29 1 -59 5 -65 9 -7 4 -12 4 -12 0z"/>
<path d="M1609 194 c-12 -15 -11 -16 8 -10 24 8 41 -10 25 -26 -6 -6 -27 -12
-46 -13 -20 -1 -43 -9 -53 -16 -15 -12 -16 -12 -10 4 7 20 3 21 -24 7 -28 -15
-23 -29 9 -25 15 2 29 4 32 5 3 2 9 2 14 1 13 -3 109 30 121 41 6 5 2 11 -12
14 -12 3 -24 12 -27 20 -7 19 -20 18 -37 -2z"/>
<path d="M1350 190 c0 -5 5 -10 10 -10 6 0 10 5 10 10 0 6 -4 10 -10 10 -5 0
-10 -4 -10 -10z"/>
<path d="M1230 173 c0 -11 -12 -23 -30 -30 -25 -9 -30 -9 -30 3 0 8 -4 14 -10
14 -5 0 -10 -11 -10 -25 0 -19 5 -24 19 -22 10 2 26 8 34 15 12 10 22 9 50 -8
37 -22 117 -34 117 -19 0 5 -7 9 -15 9 -8 0 -15 7 -15 15 0 8 -5 15 -11 15 -6
0 -9 -7 -5 -15 4 -11 -1 -15 -19 -15 -14 0 -25 4 -25 9 0 5 -9 12 -19 16 -12
4 -17 12 -14 24 3 10 0 22 -6 25 -6 4 -11 -1 -11 -11z"/>
<path d="M1540 175 c0 -8 5 -15 10 -15 6 0 10 7 10 15 0 8 -4 15 -10 15 -5 0
-10 -7 -10 -15z"/>
<path d="M1198 173 c7 -3 16 -2 19 1 4 3 -2 6 -13 5 -11 0 -14 -3 -6 -6z"/>
<path d="M1330 160 l-25 -8 28 -1 c15 -1 27 4 27 9 0 6 -1 10 -2 9 -2 -1 -14
-5 -28 -9z"/>
<path d="M1430 162 c0 -7 -9 -12 -20 -12 -16 0 -18 -4 -11 -22 10 -28 34 -37
30 -12 -2 11 0 25 5 32 4 7 5 16 2 19 -3 4 -6 1 -6 -5z"/>
<path d="M1470 143 c-8 -16 -16 -31 -18 -35 -2 -5 4 -8 13 -8 12 0 15 6 10 20
-5 14 -2 20 9 20 9 0 16 7 16 15 0 24 -15 17 -30 -12z"/>
<path d="M1054 148 c-3 -4 11 -8 30 -8 20 0 36 2 36 4 0 8 -61 12 -66 4z"/>
<path d="M1208 103 c6 -2 18 -2 25 0 6 3 1 5 -13 5 -14 0 -19 -2 -12 -5z"/>
</g>
</svg>
